<svg width="256" height="256" viewBox="0 0 256 256" fill="none" xmlns="http://www.w3.org/2000/svg" xmlns:xlink="http://www.w3.org/1999/xlink">
  <rect width="256" height="256" fill="#1C1E22"/>
  <svg x="18" y="18" width="220" height="220" viewBox="0 0 195 195" preserveAspectRatio="xMidYMid meet">
<metadata><rdf:RDF xmlns:rdf="http://www.w3.org/1999/02/22-rdf-syntax-ns#" xmlns:dc="http://purl.org/dc/elements/1.1/"><rdf:Description><dc:creator>RealFaviconGenerator</dc:creator><dc:source>https://realfavicongenerator.net</dc:source></rdf:Description></rdf:RDF></metadata><rect width="195" height="195" rx="97.5" fill="#1C1E22"></rect><path d="M41.0175 151.422C40.2306 151.422 39.4438 151.129 38.8536 150.444C25.4758 135.88 18 116.918 18 97.0756C18 89.4515 19.082 81.9251 21.2461 74.692C21.7379 73.1281 23.3118 72.3461 24.7873 72.7371C26.3611 73.2258 27.148 74.7897 26.7545 76.2559C24.7872 83.0003 23.8035 89.9402 23.8035 96.9778C23.8035 115.354 30.6892 132.948 43.0833 146.437C44.1653 147.61 44.0669 149.369 42.8865 150.444C42.2963 150.933 41.6078 151.226 40.9192 151.226L41.0175 151.422Z" fill="white"></path><path d="M97.6722 176.354C85.0813 176.354 72.9824 173.519 61.867 167.948C60.4899 167.263 59.8998 165.504 60.5883 164.136C61.2769 162.767 63.0475 162.181 64.4246 162.865C74.753 168.045 85.9666 170.684 97.6722 170.684C138.396 170.684 171.545 137.744 171.545 97.278C171.545 90.0449 170.463 82.9095 168.397 76.0674C167.905 74.5034 168.791 72.9395 170.364 72.5485C171.84 72.0598 173.512 72.9395 173.906 74.5034C176.168 81.9321 177.25 89.5562 177.25 97.3758C177.25 141.068 141.543 176.354 97.6722 176.354Z" fill="white"></path><path d="M37.5774 52.6017C36.9872 52.6017 36.2986 52.4062 35.8068 52.0153C34.528 51.0378 34.3313 49.2784 35.315 48.0077C50.5617 28.9474 73.2841 18 97.6788 18C120.303 18 141.943 27.579 157.092 44.3911C158.174 45.5641 158.075 47.4212 156.895 48.3987C155.715 49.4739 153.846 49.3761 152.862 48.2032C138.894 32.6617 118.729 23.767 97.7772 23.767C75.1531 23.767 54.0045 33.9324 39.8398 51.5265C39.2496 52.2107 38.4626 52.6017 37.5774 52.6017V52.6017Z" fill="white"></path><path d="M97.6867 163.638C60.7996 163.638 30.7981 133.826 30.7981 97.1716C30.7981 60.5173 60.7996 30.7051 97.6867 30.7051C100.343 30.7051 102.998 30.9006 105.654 31.1938C107.228 31.3893 108.31 32.7577 108.212 34.4194C108.015 35.9833 106.638 37.1562 104.966 36.9607C102.605 36.6675 100.146 36.5698 97.6867 36.5698C63.9473 36.5698 36.6016 63.8406 36.6016 97.2694C36.6016 130.698 64.0457 157.969 97.6867 157.969C99.2606 157.969 100.539 159.24 100.539 160.804C100.539 162.368 99.2606 163.736 97.6867 163.736V163.638Z" fill="white"></path><path d="M124.328 157.879C123.246 157.879 122.164 157.293 121.673 156.218C120.984 154.752 121.673 153.09 123.05 152.406C144.69 142.533 158.658 120.834 158.658 97.1798C158.658 75.5782 146.953 55.4427 128.066 44.593C126.689 43.8111 126.197 42.0517 126.984 40.6833C127.771 39.3148 129.542 38.8261 130.919 39.6081C151.576 51.4352 164.363 73.5255 164.363 97.1798C164.363 123.082 149.018 146.736 125.41 157.586C125.017 157.782 124.624 157.879 124.23 157.879H124.328Z" fill="white"></path><path d="M60.9005 135.392C60.1136 135.392 59.4251 135.099 58.8349 134.512C48.9983 124.445 43.6865 111.151 43.6865 97.1738C43.6865 95.6099 44.9653 94.3392 46.5391 94.3392C48.113 94.3392 49.3918 95.6099 49.3918 97.1738C49.3918 109.685 54.2116 121.512 62.9662 130.505C64.0482 131.678 64.0482 133.437 62.9662 134.512C62.376 135.099 61.6875 135.294 60.9989 135.294L60.9005 135.392Z" fill="white"></path><path d="M97.6816 150.932C90.1074 150.932 82.8284 149.466 76.0411 146.436C74.5656 145.85 73.8771 144.09 74.5656 142.624C75.1558 141.158 76.9264 140.474 78.3035 141.158C84.4022 143.797 90.8943 145.165 97.6816 145.165C112.043 145.165 125.519 138.91 134.765 127.865C135.749 126.692 137.618 126.496 138.798 127.474C139.979 128.451 140.176 130.308 139.192 131.481C128.864 143.797 113.814 150.835 97.6816 150.835V150.932Z" fill="white"></path><path d="M146.583 115.16C146.583 115.16 145.992 115.16 145.697 115.062C144.222 114.573 143.336 113.009 143.828 111.446C145.304 106.852 145.992 102.062 145.992 97.1748C145.992 70.6859 124.352 49.182 97.6948 49.182C80.6775 49.182 65.3324 57.7836 56.4795 72.2498C55.6926 73.6183 53.922 74.0092 52.5449 73.2273C51.1678 72.4453 50.7743 70.6859 51.5612 69.3175C61.4962 53.1896 78.7102 43.5128 97.6948 43.5128C127.5 43.5128 151.796 67.6558 151.796 97.1748C151.796 102.648 151.009 107.927 149.337 113.107C148.943 114.378 147.763 115.16 146.583 115.16V115.16Z" fill="white"></path><path fill-rule="evenodd" clip-rule="evenodd" d="M97.6603 59.0552C76.4133 59.0552 59.2976 76.1605 59.2976 97.1757C59.2976 118.191 76.5116 135.296 97.6603 135.296C118.809 135.296 136.023 118.191 136.023 97.1757C136.023 76.0628 118.809 59.0552 97.6603 59.0552ZM104.546 102.161V112.228C104.546 115.943 101.497 119.071 97.6603 119.071C93.824 119.071 90.7747 116.04 90.7747 112.228V102.161C86.2499 99.7171 83.2989 95.0253 83.2989 89.6493C83.2989 81.732 89.6926 75.3786 97.6603 75.3786C105.628 75.3786 112.022 81.732 112.022 89.6493C112.022 95.0253 108.972 99.8148 104.448 102.161H104.546Z" fill="white"></path>
  </svg>
</svg>
