<svg width="256" height="256" viewBox="0 0 256 256" fill="none" xmlns="http://www.w3.org/2000/svg" xmlns:xlink="http://www.w3.org/1999/xlink">
  <rect width="256" height="256" fill="#EAF2FF"/>
  <svg x="42" y="42" width="172" height="172" viewBox="0 0 1024 1024" preserveAspectRatio="xMidYMid meet">

<g clip-path="url(#clip0_27_43)">
<path d="M200 0C310.457 0 400 89.5431 400 200C400 293.192 336.261 371.496 250 393.698V630.301C320.28 648.39 375.61 703.72 393.699 774H674C728.797 774 773.3 729.926 773.992 675.293L774 674V393.698C687.739 371.496 624 293.192 624 200C624 89.5431 713.543 0 824 0C934.457 0 1024 89.5431 1024 200C1024 293.192 960.261 371.496 874 393.698V674C874 784.457 784.457 874 674 874H393.699C371.497 960.261 293.192 1024 200 1024C89.5431 1024 0 934.457 0 824C0 730.808 63.7386 652.503 150 630.301V393.698C63.7387 371.496 0 293.192 0 200C0 89.5431 89.5431 0 200 0ZM200 724C144.772 724 100 768.772 100 824C100 879.228 144.772 924 200 924C255.228 924 300 879.228 300 824C300 768.772 255.228 724 200 724ZM200 100C144.772 100 100 144.772 100 200C100 255.228 144.772 300 200 300C255.228 300 300 255.228 300 200C300 144.772 255.228 100 200 100ZM824 100C768.772 100 724 144.772 724 200C724 255.228 768.772 300 824 300C879.228 300 924 255.228 924 200C924 144.772 879.228 100 824 100Z" fill="url(#paint0_linear_27_43)"/>
<circle cx="200" cy="200" r="100" fill="#4A90E2"/>
<circle cx="200" cy="824" r="100" fill="#4A90E2"/>
<circle cx="824" cy="200" r="100" fill="#4A90E2"/>
</g>
<defs>
<linearGradient id="paint0_linear_27_43" x1="888.5" y1="956.5" x2="47" y2="11" gradientUnits="userSpaceOnUse">
<stop stop-color="#374151"/>
<stop offset="1" stop-color="#1F2937"/>
</linearGradient>
<clipPath id="clip0_27_43">
<rect width="1024" height="1024" fill="white"/>
</clipPath>
</defs>
  </svg>
</svg>
